<svg width="664" height="263" viewBox="0 0 664 263" fill="none" xmlns="http://www.w3.org/2000/svg">
<path d="M170.625 206C174.625 202.5 174.625 202.5 178.625 199" stroke="black" stroke-width="5.085" stroke-linecap="round"/>
<path d="M178.625 199C182.98 195.847 182.625 195.5 186.625 192" stroke="black" stroke-width="3.758" stroke-linecap="round"/>
<path d="M186.625 192C191.403 185.803 191.98 186.347 196.625 180" stroke="black" stroke-width="3.138" stroke-linecap="round"/>
<path d="M196.625 180C205.731 171.513 204.903 170.803 213.625 162" stroke="black" stroke-width="2.492" stroke-linecap="round"/>
<path d="M213.625 162C225.233 147.921 225.231 148.013 235.625 133" stroke="black" stroke-width="1.956" stroke-linecap="round"/>
<path d="M235.625 133C243.606 119.143 244.733 119.921 252.625 106" stroke="black" stroke-width="1.901" stroke-linecap="round"/>
<path d="M252.625 106C261.855 94.165 261.106 93.643 270.625 82" stroke="black" stroke-width="1.993" stroke-linecap="round"/>
<path d="M270.625 82C277.241 72.576 277.355 72.665 283.625 63" stroke="black" stroke-width="2.255" stroke-linecap="round"/>
<path d="M283.625 63C287.75 57.751 287.241 57.576 290.625 52" stroke="black" stroke-width="2.877" stroke-linecap="round"/>
<path d="M290.625 52C292.563 46.812 291.75 49.751 291.625 47" stroke="black" stroke-width="4.023" stroke-linecap="round"/>
<path d="M291.625 47C288.625 50 290.063 47.312 285.625 53" stroke="black" stroke-width="4.363" stroke-linecap="round"/>
<path d="M285.625 53C280.16 57.601 280.625 58 275.625 63" stroke="black" stroke-width="3.37" stroke-linecap="round"/>
<path d="M275.625 63C270.175 70.537 269.66 70.101 264.625 78" stroke="black" stroke-width="2.792" stroke-linecap="round"/>
<path d="M264.625 78C254.993 89.575 255.675 90.037 246.625 102" stroke="black" stroke-width="2.215" stroke-linecap="round"/>
<path d="M246.625 102C239.197 114.544 238.493 114.075 231.625 127" stroke="black" stroke-width="2.055" stroke-linecap="round"/>
<path d="M231.625 127C223.139 139.725 223.697 140.044 215.625 153" stroke="black" stroke-width="2.025" stroke-linecap="round"/>
<path d="M215.625 153C208.633 166.504 208.139 166.225 201.625 180" stroke="black" stroke-width="2.019" stroke-linecap="round"/>
<path d="M201.625 180C195.255 192.569 195.133 192.504 188.625 205" stroke="black" stroke-width="2.086" stroke-linecap="round"/>
<path d="M188.625 205C183.569 215.274 183.255 215.069 177.625 225" stroke="black" stroke-width="2.243" stroke-linecap="round"/>
<path d="M177.625 225C172.076 232.967 172.569 233.274 166.625 241" stroke="black" stroke-width="2.498" stroke-linecap="round"/>
<path d="M166.625 241C162.842 247.162 162.576 246.967 158.625 253" stroke="black" stroke-width="2.803" stroke-linecap="round"/>
<path d="M158.625 253C154.937 259.875 156.342 256.162 153.625 259" stroke="black" stroke-width="3.465" stroke-linecap="round"/>
<path d="M153.625 259C151.27 253.515 151.937 257.875 152.625 249" stroke="black" stroke-width="4.591" stroke-linecap="round"/>
<path d="M152.625 249C155.934 243.857 154.27 243.515 159.625 239" stroke="black" stroke-width="3.512" stroke-linecap="round"/>
<path d="M159.625 239C165.088 231.004 165.434 231.357 171.625 224" stroke="black" stroke-width="2.783" stroke-linecap="round"/>
<path d="M171.625 224C178.954 215.654 179.088 216.004 187.625 209" stroke="black" stroke-width="2.546" stroke-linecap="round"/>
<path d="M187.625 209C200.616 199.134 200.454 199.154 214.625 191" stroke="black" stroke-width="2.022" stroke-linecap="round"/>
<path d="M214.625 191C231.617 180.85 231.616 181.134 249.625 173" stroke="black" stroke-width="1.783" stroke-linecap="round"/>
<path d="M249.625 173C270.972 164.546 270.617 163.85 292.625 157" stroke="black" stroke-width="1.539" stroke-linecap="round"/>
<path d="M214.625 126C216.371 123.254 216.625 123.5 218.625 121" stroke="black" stroke-width="5.372" stroke-linecap="round"/>
<path d="M218.625 121C221.942 117.762 221.871 117.754 225.625 115" stroke="black" stroke-width="4.036" stroke-linecap="round"/>
<path d="M225.625 115C231.978 110.273 231.942 110.262 238.625 106" stroke="black" stroke-width="3.108" stroke-linecap="round"/>
<path d="M238.625 106C245.745 100.694 245.978 101.273 253.625 97" stroke="black" stroke-width="2.865" stroke-linecap="round"/>
<path d="M253.625 97C261.952 93.313 261.745 93.194 270.625 91" stroke="black" stroke-width="2.769" stroke-linecap="round"/>
<path d="M270.625 91C277.106 89.283 276.952 89.313 283.625 89" stroke="black" stroke-width="3.039" stroke-linecap="round"/>
<path d="M283.625 89C289.123 88.312 288.606 88.783 293.625 90" stroke="black" stroke-width="3.319" stroke-linecap="round"/>
<path d="M293.625 90C297.294 91.97 297.123 91.312 299.625 95" stroke="black" stroke-width="3.629" stroke-linecap="round"/>
<path d="M299.625 95C302.428 98.81 302.294 98.47 303.625 103" stroke="black" stroke-width="3.614" stroke-linecap="round"/>
<path d="M303.625 103C303.625 106 304.428 105.81 303.625 109" stroke="black" stroke-width="3.978" stroke-linecap="round"/>
<path d="M303.625 109C304.343 112.647 303.625 112.5 303.625 116" stroke="black" stroke-width="4.028" stroke-linecap="round"/>
<path d="M303.625 116C302.326 119.598 302.843 119.647 300.625 123" stroke="black" stroke-width="3.874" stroke-linecap="round"/>
<path d="M300.625 123C298.472 127.729 298.326 127.598 295.625 132" stroke="black" stroke-width="3.547" stroke-linecap="round"/>
<path d="M295.625 132C292.516 136.866 292.472 136.729 288.625 141" stroke="black" stroke-width="3.419" stroke-linecap="round"/>
<path d="M288.625 141C284.518 145.534 284.516 145.366 279.625 149" stroke="black" stroke-width="3.27" stroke-linecap="round"/>
<path d="M279.625 149C272.324 153.876 272.518 154.034 264.625 158" stroke="black" stroke-width="2.905" stroke-linecap="round"/>
<path d="M264.625 158C258.241 161.293 258.324 161.376 251.625 164" stroke="black" stroke-width="3.061" stroke-linecap="round"/>
<path d="M251.625 164C247.063 165.336 247.241 165.793 242.625 167" stroke="black" stroke-width="3.426" stroke-linecap="round"/>
<path d="M237.625 171C240.464 168.702 240.625 169 243.625 167" stroke="black" stroke-width="5.464" stroke-linecap="round"/>
<path d="M243.625 167C247.275 165.787 246.964 165.202 250.625 164" stroke="black" stroke-width="4.31" stroke-linecap="round"/>
<path d="M250.625 164C254.256 160.589 254.775 161.787 258.625 159" stroke="black" stroke-width="3.801" stroke-linecap="round"/>
<path d="M258.625 159C265.541 156.932 265.256 156.589 272.625 156" stroke="black" stroke-width="3.245" stroke-linecap="round"/>
<path d="M272.625 156C284.76 153.209 284.541 154.432 296.625 154" stroke="black" stroke-width="2.474" stroke-linecap="round"/>
<path d="M296.625 154C307.493 155.454 307.26 154.709 317.625 159" stroke="black" stroke-width="2.532" stroke-linecap="round"/>
<path d="M317.625 159C328.171 162.082 327.493 162.454 336.625 168" stroke="black" stroke-width="2.46" stroke-linecap="round"/>
<path d="M336.625 168C343.103 173.349 343.171 172.582 347.625 180" stroke="black" stroke-width="2.736" stroke-linecap="round"/>
<path d="M347.625 180C351.793 186.196 351.603 185.849 353.625 193" stroke="black" stroke-width="2.895" stroke-linecap="round"/>
<path d="M353.625 193C355.446 199.702 355.293 199.196 354.625 206" stroke="black" stroke-width="3.035" stroke-linecap="round"/>
<path d="M354.625 206C353.342 211.403 353.946 211.202 350.625 216" stroke="black" stroke-width="3.31" stroke-linecap="round"/>
<path d="M350.625 216C346.633 222.465 346.842 222.403 341.625 228" stroke="black" stroke-width="3.078" stroke-linecap="round"/>
<path d="M341.625 228C337.181 233.296 337.133 232.965 331.625 237" stroke="black" stroke-width="3.121" stroke-linecap="round"/>
<path d="M331.625 237C323.444 242.221 323.681 242.296 314.625 246" stroke="black" stroke-width="2.701" stroke-linecap="round"/>
<path d="M314.625 246C302.444 251.685 302.444 251.221 289.625 255" stroke="black" stroke-width="2.262" stroke-linecap="round"/>
<path d="M289.625 255C273.243 259.31 273.444 259.185 256.625 261" stroke="black" stroke-width="1.99" stroke-linecap="round"/>
<path d="M256.625 261C243.625 261 243.743 262.31 230.625 261" stroke="black" stroke-width="2.148" stroke-linecap="round"/>
<path d="M230.625 261C220.541 261.85 220.625 261 210.625 261" stroke="black" stroke-width="2.436" stroke-linecap="round"/>
<path d="M210.625 261C203.054 259.783 203.041 260.35 195.625 258" stroke="black" stroke-width="2.781" stroke-linecap="round"/>
<path d="M195.625 258C190.633 256.473 190.554 256.783 185.625 255" stroke="black" stroke-width="3.239" stroke-linecap="round"/>
<path d="M185.625 255C181.72 254.688 182.133 253.973 178.625 253" stroke="black" stroke-width="3.699" stroke-linecap="round"/>
<path d="M183.625 254C181.014 252.124 181.125 252 178.625 250" stroke="black" stroke-width="5.388" stroke-linecap="round"/>
<path d="M178.625 250C175.596 248.426 176.514 248.124 174.625 246" stroke="black" stroke-width="5.142" stroke-linecap="round"/>
<path d="M174.625 246C173.864 242.789 173.596 243.426 174.625 240" stroke="black" stroke-width="5.065" stroke-linecap="round"/>
<path d="M174.625 240C175.605 237.02 175.364 237.289 177.625 235" stroke="black" stroke-width="4.418" stroke-linecap="round"/>
<path d="M177.625 235C181.047 232.385 180.605 232.02 184.625 230" stroke="black" stroke-width="3.917" stroke-linecap="round"/>
<path d="M184.625 230C189.878 226.053 190.047 226.385 195.625 223" stroke="black" stroke-width="3.373" stroke-linecap="round"/>
<path d="M195.625 223C205.649 216.659 205.878 217.553 216.625 213" stroke="black" stroke-width="2.607" stroke-linecap="round"/>
<path d="M216.625 213C232.937 207.995 232.649 207.659 249.625 205" stroke="black" stroke-width="2.049" stroke-linecap="round"/>
<path d="M249.625 205C272.037 201.111 271.937 200.995 294.625 199" stroke="black" stroke-width="1.658" stroke-linecap="round"/>
<path d="M294.625 199C325.702 194.691 325.537 196.111 356.625 195" stroke="black" stroke-width="1.361" stroke-linecap="round"/>
<path d="M356.625 195C375.783 196.694 375.702 195.191 394.625 200" stroke="black" stroke-width="1.555" stroke-linecap="round"/>
<path d="M394.625 200C404.307 202.018 404.283 201.694 413.625 205" stroke="black" stroke-width="2.168" stroke-linecap="round"/>
<path d="M413.625 205C417.789 205.64 416.807 206.018 419.625 208" stroke="black" stroke-width="3.206" stroke-linecap="round"/>
<path d="M419.625 208C421.525 211.3 421.289 210.14 420.625 214" stroke="black" stroke-width="4.15" stroke-linecap="round"/>
<path d="M444.625 68C445.412 76.492 445.125 76.5 445.625 85" stroke="black" stroke-width="4.775" stroke-linecap="round"/>
<path d="M445.625 85C445.625 96.5 445.912 96.492 445.625 108" stroke="black" stroke-width="2.812" stroke-linecap="round"/>
<path d="M445.625 108C445.141 123.515 445.625 123.5 445.625 139" stroke="black" stroke-width="2.183" stroke-linecap="round"/>
<path d="M445.625 139C447.125 155.485 446.141 155.515 447.625 172" stroke="black" stroke-width="1.985" stroke-linecap="round"/>
<path d="M447.625 172C447.625 188.5 448.125 188.485 447.625 205" stroke="black" stroke-width="1.934" stroke-linecap="round"/>
<path d="M447.625 205C447.625 216.5 447.625 216.5 447.625 228" stroke="black" stroke-width="2.232" stroke-linecap="round"/>
<path d="M447.625 228C447.625 236 447.625 236 447.625 244" stroke="black" stroke-width="2.66" stroke-linecap="round"/>
<path d="M217.625 117C221.148 117.368 221.125 117.5 224.625 118" stroke="black" stroke-width="5.399" stroke-linecap="round"/>
<path d="M224.625 118C232.052 119.99 232.148 119.368 239.625 121" stroke="black" stroke-width="3.425" stroke-linecap="round"/>
<path d="M239.625 121C254.6 122.798 254.552 122.99 269.625 124" stroke="black" stroke-width="2.378" stroke-linecap="round"/>
<path d="M269.625 124C292.097 126.173 292.1 125.798 314.625 127" stroke="black" stroke-width="1.722" stroke-linecap="round"/>
<path d="M314.625 127C346.623 127.811 346.597 128.173 378.625 128" stroke="black" stroke-width="1.303" stroke-linecap="round"/>
<path d="M378.625 128C431.204 129.931 431.123 128.311 483.625 128" stroke="black" stroke-width="1.125" stroke-linecap="round"/>
<path d="M421.625 212C422.444 209.532 422.125 209.5 422.625 207" stroke="black" stroke-width="5.344" stroke-linecap="round"/>
<path d="M422.625 207C424.415 201.579 422.944 202.532 422.625 198" stroke="black" stroke-width="4.662" stroke-linecap="round"/>
<path d="M422.625 198C419.371 195.017 420.915 194.579 415.625 193" stroke="black" stroke-width="4.54" stroke-linecap="round"/>
<path d="M415.625 193C412.709 191.617 412.871 191.517 409.625 191" stroke="black" stroke-width="4.222" stroke-linecap="round"/>
<path d="M409.625 191C405.14 190.226 405.209 190.117 400.625 190" stroke="black" stroke-width="3.76" stroke-linecap="round"/>
<path d="M400.625 190C394.667 188.487 395.14 189.726 389.625 190" stroke="black" stroke-width="3.512" stroke-linecap="round"/>
<path d="M389.625 190C384.78 192.579 384.667 191.487 380.625 196" stroke="black" stroke-width="3.401" stroke-linecap="round"/>
<path d="M380.625 196C375.574 199.331 376.28 199.579 372.625 204" stroke="black" stroke-width="3.385" stroke-linecap="round"/>
<path d="M372.625 204C369.704 209.338 369.574 208.831 368.625 215" stroke="black" stroke-width="3.347" stroke-linecap="round"/>
<path d="M368.625 215C368.012 220.099 367.704 219.838 368.625 225" stroke="black" stroke-width="3.426" stroke-linecap="round"/>
<path d="M368.625 225C368.973 228.403 369.012 228.099 370.625 231" stroke="black" stroke-width="3.872" stroke-linecap="round"/>
<path d="M370.625 231C372.668 234.387 372.473 233.903 375.625 236" stroke="black" stroke-width="3.942" stroke-linecap="round"/>
<path d="M375.625 236C378.6 236.798 378.168 237.387 381.625 237" stroke="black" stroke-width="4.034" stroke-linecap="round"/>
<path d="M381.625 237C386.427 238.166 386.1 237.298 390.625 237" stroke="black" stroke-width="3.778" stroke-linecap="round"/>
<path d="M390.625 237C395.35 234.85 395.427 235.666 399.625 232" stroke="black" stroke-width="3.581" stroke-linecap="round"/>
<path d="M399.625 232C407.845 227.277 407.35 226.85 414.625 221" stroke="black" stroke-width="2.904" stroke-linecap="round"/>
<path d="M415 221C420.014 215.419 420.04 215.666 424 209" stroke="black" stroke-width="2.694" stroke-linecap="round"/>
</svg>
