<svg width="32" height="32" viewBox="0 0 32 32" fill="none" xmlns="http://www.w3.org/2000/svg">
<g clip-path="url(#clip0)">
<path fill-rule="evenodd" clip-rule="evenodd" d="M16 27.7128L14.2679 24.7128L1.73205 3L0 0H3.4641H28.5359H32L30.268 3L17.732 24.7128L16 27.7128ZM21.7792 11.7029L16 21.7128L10.2107 11.6855L10.3675 11.415L14.2562 4.70639L15.078 3.28867L15.163 3.14196L15.2453 3H16.7346L16.8169 3.14196L16.9019 3.28867L17.7237 4.70639L21.6124 11.415L21.7792 11.7029ZM8.63376 8.4239L5.65712 3.28867H11.6104L8.63376 8.4239ZM23.3461 8.4239L26.3228 3.28867H20.3695L23.3461 8.4239Z" fill="#141414"/>
</g>
<defs>
<clipPath id="clip0">
<rect width="32" height="32" fill="white"/>
</clipPath>
</defs>
</svg>
