<svg version="1.0" xmlns="http://www.w3.org/2000/svg" width="85.333" height="85.333" viewBox="0 0 64 64"><path d="M19.5 14.6c-7.4 3.8-7.4 4 1.2 12.6l7.7 7.8-3.4 3.7-3.5 3.8 3.8-3.5 3.8-3.5 7.7 7.9 7.6 7.8 2.3-2.9c2.7-3.4 4.6-8.6 4-11-.3-1.3-.5-1.1-.6.6-.1 3.3-4 11.1-5.5 11.1-.6 0-4.3-3.2-8.1-7l-6.9-7 7.4-7.5c4-4 7.7-7.2 8.2-6.9 1.4.9 4.1 6.7 4.9 10.4.6 3.3.7 3.3.8.6 0-1.5-1.1-5.1-2.6-7.8l-2.7-5 2.8-2.5c1.6-1.3 2.6-2.7 2.2-3-.3-.3-1.5.6-2.7 2-2.5 3.2-3.2 3.3-6.9.7-1.6-1.1-4.3-2.2-6.2-2.5-2.8-.4-2.9-.4-.8.3 4.7 1.6 9 4.2 9 5.5 0 .7-3 4.3-6.8 8L29.4 34l-7.2-7.3c-3.9-4-7.2-7.6-7.2-7.9 0-1 5.8-4 9.5-4.9 2.7-.6 2.8-.7.5-.8-1.4 0-3.8.6-5.5 1.5zm-2.9 28.3c-1.6 1.7-1.6 1.9.4 2.4 1.1.3 2 .1 2-.4s-.5-.9-1.1-.9c-.8 0-.8-.5.1-1.5 1.8-2.2.6-1.8-1.4.4zm4.1 3.3c-1 1.1-1.7 2.2-1.4 2.4.2.2 1.2-.5 2.2-1.6 2.3-2.6 1.6-3.3-.8-.8z"/></svg>