<svg width="664" height="263" fill="none" xmlns="http://www.w3.org/2000/svg"><path d="m170.625 206 8-7" stroke="#000" stroke-width="5.085" stroke-linecap="round"/><path d="M178.625 199c4.355-3.153 4-3.5 8-7" stroke="#000" stroke-width="3.758" stroke-linecap="round"/><path d="M186.625 192c4.778-6.197 5.355-5.653 10-12" stroke="#000" stroke-width="3.138" stroke-linecap="round"/><path d="M196.625 180c9.106-8.487 8.278-9.197 17-18" stroke="#000" stroke-width="2.492" stroke-linecap="round"/><path d="M213.625 162c11.608-14.079 11.606-13.987 22-29" stroke="#000" stroke-width="1.956" stroke-linecap="round"/><path d="M235.625 133c7.981-13.857 9.108-13.079 17-27" stroke="#000" stroke-width="1.901" stroke-linecap="round"/><path d="M252.625 106c9.23-11.835 8.481-12.357 18-24" stroke="#000" stroke-width="1.993" stroke-linecap="round"/><path d="M270.625 82c6.616-9.424 6.73-9.335 13-19" stroke="#000" stroke-width="2.255" stroke-linecap="round"/><path d="M283.625 63c4.125-5.249 3.616-5.424 7-11" stroke="#000" stroke-width="2.877" stroke-linecap="round"/><path d="M290.625 52c1.938-5.188 1.125-2.249 1-5" stroke="#000" stroke-width="4.023" stroke-linecap="round"/><path d="M291.625 47c-3 3-1.562.312-6 6" stroke="#000" stroke-width="4.363" stroke-linecap="round"/><path d="M285.625 53c-5.465 4.601-5 5-10 10" stroke="#000" stroke-width="3.37" stroke-linecap="round"/><path d="M275.625 63c-5.45 7.537-5.965 7.101-11 15" stroke="#000" stroke-width="2.792" stroke-linecap="round"/><path d="M264.625 78c-9.632 11.575-8.95 12.037-18 24" stroke="#000" stroke-width="2.215" stroke-linecap="round"/><path d="M246.625 102c-7.428 12.544-8.132 12.075-15 25" stroke="#000" stroke-width="2.055" stroke-linecap="round"/><path d="M231.625 127c-8.486 12.725-7.928 13.044-16 26" stroke="#000" stroke-width="2.025" stroke-linecap="round"/><path d="M215.625 153c-6.992 13.504-7.486 13.225-14 27" stroke="#000" stroke-width="2.019" stroke-linecap="round"/><path d="M201.625 180c-6.37 12.569-6.492 12.504-13 25" stroke="#000" stroke-width="2.086" stroke-linecap="round"/><path d="M188.625 205c-5.056 10.274-5.37 10.069-11 20" stroke="#000" stroke-width="2.243" stroke-linecap="round"/><path d="M177.625 225c-5.549 7.967-5.056 8.274-11 16" stroke="#000" stroke-width="2.498" stroke-linecap="round"/><path d="M166.625 241c-3.783 6.162-4.049 5.967-8 12" stroke="#000" stroke-width="2.803" stroke-linecap="round"/><path d="M158.625 253c-3.688 6.875-2.283 3.162-5 6" stroke="#000" stroke-width="3.465" stroke-linecap="round"/><path d="M153.625 259c-2.355-5.485-1.688-1.125-1-10" stroke="#000" stroke-width="4.591" stroke-linecap="round"/><path d="M152.625 249c3.309-5.143 1.645-5.485 7-10" stroke="#000" stroke-width="3.512" stroke-linecap="round"/><path d="M159.625 239c5.463-7.996 5.809-7.643 12-15" stroke="#000" stroke-width="2.783" stroke-linecap="round"/><path d="M171.625 224c7.329-8.346 7.463-7.996 16-15" stroke="#000" stroke-width="2.546" stroke-linecap="round"/><path d="M187.625 209c12.991-9.866 12.829-9.846 27-18" stroke="#000" stroke-width="2.022" stroke-linecap="round"/><path d="M214.625 191c16.992-10.15 16.991-9.866 35-18" stroke="#000" stroke-width="1.783" stroke-linecap="round"/><path d="M249.625 173c21.347-8.454 20.992-9.15 43-16" stroke="#000" stroke-width="1.539" stroke-linecap="round"/><path d="M214.625 126c1.746-2.746 2-2.5 4-5" stroke="#000" stroke-width="5.372" stroke-linecap="round"/><path d="M218.625 121c3.317-3.238 3.246-3.246 7-6" stroke="#000" stroke-width="4.036" stroke-linecap="round"/><path d="M225.625 115c6.353-4.727 6.317-4.738 13-9" stroke="#000" stroke-width="3.108" stroke-linecap="round"/><path d="M238.625 106c7.12-5.306 7.353-4.727 15-9" stroke="#000" stroke-width="2.865" stroke-linecap="round"/><path d="M253.625 97c8.327-3.687 8.12-3.806 17-6" stroke="#000" stroke-width="2.769" stroke-linecap="round"/><path d="M270.625 91c6.481-1.717 6.327-1.687 13-2" stroke="#000" stroke-width="3.039" stroke-linecap="round"/><path d="M283.625 89c5.498-.688 4.981-.217 10 1" stroke="#000" stroke-width="3.319" stroke-linecap="round"/><path d="M293.625 90c3.669 1.97 3.498 1.312 6 5" stroke="#000" stroke-width="3.629" stroke-linecap="round"/><path d="M299.625 95c2.803 3.81 2.669 3.47 4 8" stroke="#000" stroke-width="3.614" stroke-linecap="round"/><path d="M303.625 103c0 3 .803 2.81 0 6" stroke="#000" stroke-width="3.978" stroke-linecap="round"/><path d="M303.625 109c.718 3.647 0 3.5 0 7" stroke="#000" stroke-width="4.028" stroke-linecap="round"/><path d="M303.625 116c-1.299 3.598-.782 3.647-3 7" stroke="#000" stroke-width="3.874" stroke-linecap="round"/><path d="M300.625 123c-2.153 4.729-2.299 4.598-5 9" stroke="#000" stroke-width="3.547" stroke-linecap="round"/><path d="M295.625 132c-3.109 4.866-3.153 4.729-7 9" stroke="#000" stroke-width="3.419" stroke-linecap="round"/><path d="M288.625 141c-4.107 4.534-4.109 4.366-9 8" stroke="#000" stroke-width="3.27" stroke-linecap="round"/><path d="M279.625 149c-7.301 4.876-7.107 5.034-15 9" stroke="#000" stroke-width="2.905" stroke-linecap="round"/><path d="M264.625 158c-6.384 3.293-6.301 3.376-13 6" stroke="#000" stroke-width="3.061" stroke-linecap="round"/><path d="M251.625 164c-4.562 1.336-4.384 1.793-9 3" stroke="#000" stroke-width="3.426" stroke-linecap="round"/><path d="M237.625 171c2.839-2.298 3-2 6-4" stroke="#000" stroke-width="5.464" stroke-linecap="round"/><path d="M243.625 167c3.65-1.213 3.339-1.798 7-3" stroke="#000" stroke-width="4.31" stroke-linecap="round"/><path d="M250.625 164c3.631-3.411 4.15-2.213 8-5" stroke="#000" stroke-width="3.801" stroke-linecap="round"/><path d="M258.625 159c6.916-2.068 6.631-2.411 14-3" stroke="#000" stroke-width="3.245" stroke-linecap="round"/><path d="M272.625 156c12.135-2.791 11.916-1.568 24-2" stroke="#000" stroke-width="2.474" stroke-linecap="round"/><path d="M296.625 154c10.868 1.454 10.635.709 21 5" stroke="#000" stroke-width="2.532" stroke-linecap="round"/><path d="M317.625 159c10.546 3.082 9.868 3.454 19 9" stroke="#000" stroke-width="2.46" stroke-linecap="round"/><path d="M336.625 168c6.478 5.349 6.546 4.582 11 12" stroke="#000" stroke-width="2.736" stroke-linecap="round"/><path d="M347.625 180c4.168 6.196 3.978 5.849 6 13" stroke="#000" stroke-width="2.895" stroke-linecap="round"/><path d="M353.625 193c1.821 6.702 1.668 6.196 1 13" stroke="#000" stroke-width="3.035" stroke-linecap="round"/><path d="M354.625 206c-1.283 5.403-.679 5.202-4 10" stroke="#000" stroke-width="3.31" stroke-linecap="round"/><path d="M350.625 216c-3.992 6.465-3.783 6.403-9 12" stroke="#000" stroke-width="3.078" stroke-linecap="round"/><path d="M341.625 228c-4.444 5.296-4.492 4.965-10 9" stroke="#000" stroke-width="3.121" stroke-linecap="round"/><path d="M331.625 237c-8.181 5.221-7.944 5.296-17 9" stroke="#000" stroke-width="2.701" stroke-linecap="round"/><path d="M314.625 246c-12.181 5.685-12.181 5.221-25 9" stroke="#000" stroke-width="2.262" stroke-linecap="round"/><path d="M289.625 255c-16.382 4.31-16.181 4.185-33 6" stroke="#000" stroke-width="1.99" stroke-linecap="round"/><path d="M256.625 261c-13 0-12.882 1.31-26 0" stroke="#000" stroke-width="2.148" stroke-linecap="round"/><path d="M230.625 261c-10.084.85-10 0-20 0" stroke="#000" stroke-width="2.436" stroke-linecap="round"/><path d="M210.625 261c-7.571-1.217-7.584-.65-15-3" stroke="#000" stroke-width="2.781" stroke-linecap="round"/><path d="M195.625 258c-4.992-1.527-5.071-1.217-10-3" stroke="#000" stroke-width="3.239" stroke-linecap="round"/><path d="M185.625 255c-3.905-.312-3.492-1.027-7-2" stroke="#000" stroke-width="3.699" stroke-linecap="round"/><path d="M183.625 254c-2.611-1.876-2.5-2-5-4" stroke="#000" stroke-width="5.388" stroke-linecap="round"/><path d="M178.625 250c-3.029-1.574-2.111-1.876-4-4" stroke="#000" stroke-width="5.142" stroke-linecap="round"/><path d="M174.625 246c-.761-3.211-1.029-2.574 0-6" stroke="#000" stroke-width="5.065" stroke-linecap="round"/><path d="M174.625 240c.98-2.98.739-2.711 3-5" stroke="#000" stroke-width="4.418" stroke-linecap="round"/><path d="M177.625 235c3.422-2.615 2.98-2.98 7-5" stroke="#000" stroke-width="3.917" stroke-linecap="round"/><path d="M184.625 230c5.253-3.947 5.422-3.615 11-7" stroke="#000" stroke-width="3.373" stroke-linecap="round"/><path d="M195.625 223c10.024-6.341 10.253-5.447 21-10" stroke="#000" stroke-width="2.607" stroke-linecap="round"/><path d="M216.625 213c16.312-5.005 16.024-5.341 33-8" stroke="#000" stroke-width="2.049" stroke-linecap="round"/><path d="M249.625 205c22.412-3.889 22.312-4.005 45-6" stroke="#000" stroke-width="1.658" stroke-linecap="round"/><path d="M294.625 199c31.077-4.309 30.912-2.889 62-4" stroke="#000" stroke-width="1.361" stroke-linecap="round"/><path d="M356.625 195c19.158 1.694 19.077.191 38 5" stroke="#000" stroke-width="1.555" stroke-linecap="round"/><path d="M394.625 200c9.682 2.018 9.658 1.694 19 5" stroke="#000" stroke-width="2.168" stroke-linecap="round"/><path d="M413.625 205c4.164.64 3.182 1.018 6 3" stroke="#000" stroke-width="3.206" stroke-linecap="round"/><path d="M419.625 208c1.9 3.3 1.664 2.14 1 6" stroke="#000" stroke-width="4.15" stroke-linecap="round"/><path d="M444.625 68c.787 8.492.5 8.5 1 17" stroke="#000" stroke-width="4.775" stroke-linecap="round"/><path d="M445.625 85c0 11.5.287 11.492 0 23" stroke="#000" stroke-width="2.812" stroke-linecap="round"/><path d="M445.625 108c-.484 15.515 0 15.5 0 31" stroke="#000" stroke-width="2.183" stroke-linecap="round"/><path d="M445.625 139c1.5 16.485.516 16.515 2 33" stroke="#000" stroke-width="1.985" stroke-linecap="round"/><path d="M447.625 172c0 16.5.5 16.485 0 33" stroke="#000" stroke-width="1.934" stroke-linecap="round"/><path d="M447.625 205v23" stroke="#000" stroke-width="2.232" stroke-linecap="round"/><path d="M447.625 228v16" stroke="#000" stroke-width="2.66" stroke-linecap="round"/><path d="M217.625 117c3.523.368 3.5.5 7 1" stroke="#000" stroke-width="5.399" stroke-linecap="round"/><path d="M224.625 118c7.427 1.99 7.523 1.368 15 3" stroke="#000" stroke-width="3.425" stroke-linecap="round"/><path d="M239.625 121c14.975 1.798 14.927 1.99 30 3" stroke="#000" stroke-width="2.378" stroke-linecap="round"/><path d="M269.625 124c22.472 2.173 22.475 1.798 45 3" stroke="#000" stroke-width="1.722" stroke-linecap="round"/><path d="M314.625 127c31.998.811 31.972 1.173 64 1" stroke="#000" stroke-width="1.303" stroke-linecap="round"/><path d="M378.625 128c52.579 1.931 52.498.311 105 0" stroke="#000" stroke-width="1.125" stroke-linecap="round"/><path d="M421.625 212c.819-2.468.5-2.5 1-5" stroke="#000" stroke-width="5.344" stroke-linecap="round"/><path d="M422.625 207c1.79-5.421.319-4.468 0-9" stroke="#000" stroke-width="4.662" stroke-linecap="round"/><path d="M422.625 198c-3.254-2.983-1.71-3.421-7-5" stroke="#000" stroke-width="4.54" stroke-linecap="round"/><path d="M415.625 193c-2.916-1.383-2.754-1.483-6-2" stroke="#000" stroke-width="4.222" stroke-linecap="round"/><path d="M409.625 191c-4.485-.774-4.416-.883-9-1" stroke="#000" stroke-width="3.76" stroke-linecap="round"/><path d="M400.625 190c-5.958-1.513-5.485-.274-11 0" stroke="#000" stroke-width="3.512" stroke-linecap="round"/><path d="M389.625 190c-4.845 2.579-4.958 1.487-9 6" stroke="#000" stroke-width="3.401" stroke-linecap="round"/><path d="M380.625 196c-5.051 3.331-4.345 3.579-8 8" stroke="#000" stroke-width="3.385" stroke-linecap="round"/><path d="M372.625 204c-2.921 5.338-3.051 4.831-4 11" stroke="#000" stroke-width="3.347" stroke-linecap="round"/><path d="M368.625 215c-.613 5.099-.921 4.838 0 10" stroke="#000" stroke-width="3.426" stroke-linecap="round"/><path d="M368.625 225c.348 3.403.387 3.099 2 6" stroke="#000" stroke-width="3.872" stroke-linecap="round"/><path d="M370.625 231c2.043 3.387 1.848 2.903 5 5" stroke="#000" stroke-width="3.942" stroke-linecap="round"/><path d="M375.625 236c2.975.798 2.543 1.387 6 1" stroke="#000" stroke-width="4.034" stroke-linecap="round"/><path d="M381.625 237c4.802 1.166 4.475.298 9 0" stroke="#000" stroke-width="3.778" stroke-linecap="round"/><path d="M390.625 237c4.725-2.15 4.802-1.334 9-5" stroke="#000" stroke-width="3.581" stroke-linecap="round"/><path d="M399.625 232c8.22-4.723 7.725-5.15 15-11" stroke="#000" stroke-width="2.904" stroke-linecap="round"/><path d="M415 221c5.014-5.581 5.04-5.334 9-12" stroke="#000" stroke-width="2.694" stroke-linecap="round"/></svg>