<svg version="1.0" xmlns="http://www.w3.org/2000/svg" width="85.333" height="85.333" viewBox="0 0 64 64"><path d="M16.6 18.7c-2.6 3.1-4.5 6-4.4 6.4C12.7 26.6 31.3 50 32 50c.9 0 19.5-23.8 19.5-25 0-.5-2-3.5-4.4-6.5L42.7 13H21.2l-4.6 5.7zm23.4-4c-.1.5-1.9 2.8-4.1 5.3l-4.1 4.4-4.5-4.9c-2.5-2.8-3.9-4.1-3.2-3 .7 1.1 2.4 3.2 3.8 4.7l2.5 2.8h-8.2c-7.8 0-8.2-.1-7.3-1.9.6-1 2.6-3.2 4.6-5 3.4-3 4-3.1 12-3.1 4.7 0 8.5.3 8.5.7zm6.5 4.5 3.6 4.3-4 .3c-2.3.2-5.9.2-8.1 0l-3.9-.3 3.5-4.3c2-2.3 3.9-4.2 4.4-4.2.5 0 2.5 1.9 4.5 4.2zm3.3 6.8c-.9 2.9-16.3 21-17.8 21s-8.5-8-18.3-20.7c-.7-1 3.3-1.2 17.8-1.2 11.5 0 18.5.3 18.3.9z"/></svg>