<svg version="1.0" xmlns="http://www.w3.org/2000/svg" width="85.333" height="85.333" viewBox="0 0 64 64"><path d="M48.5 15c-.4 1.1-1.8 2.7-3.3 3.5-1.5.8-2.1 1.4-1.4 1.5 1.5 0 6.2-4.4 6.2-6 0-1.7-.8-1.1-1.5 1zm-14.4 7.6C32.9 24.1 32 26 32 26.9c.1.9.6.3 1.3-1.2.7-1.6 2.3-3.5 3.7-4.2 1.8-1 2-1.4.8-1.5-.9 0-2.6 1.2-3.7 2.6zm-16.9 7C14.7 31.3 11 38 11 40.7c.1 1 .7.2 1.4-1.8 1.6-4.7 4-8 6.8-9.6 1.3-.7 1.8-1.2 1.3-1.3-.6 0-2.1.7-3.3 1.6zm7.8-.2c3.2 2 10.8 2 14 0l2.5-1.5-2.5.8c-3.2 1-10.8 1-14 0l-2.5-.8 2.5 1.5zm19.8-.1c2.8 1.6 5.2 4.9 6.8 9.6.7 2 1.3 2.8 1.4 1.8.1-4.1-6-12.7-8.9-12.7-1.1.1-.9.5.7 1.3zm-23.7 5.9c0 .9-.9 1.9-1.8 2.1-1.6.4-1.6.5-.1.6.9 0 1.9.9 2.1 1.8.4 1.6.5 1.6.6.1 0-.9.9-1.9 1.9-2.1 1.5-.4 1.5-.5 0-.6-.9 0-1.9-.9-2.1-1.9-.4-1.5-.5-1.5-.6 0zm16.4.7c-.8 1.5.3 3.1 2.1 3.1.9 0 1.4-.7 1.2-1.7-.4-2-2.4-2.8-3.3-1.4zM40 37c0 .5-.4 1-1 1-.5 0-1-.5-1-1 0-.6.5-1 1-1 .6 0 1 .4 1 1zm3.5 1c-.8 1.4.3 3 2.1 3 .8 0 1.4-.9 1.4-2 0-2.1-2.4-2.8-3.5-1zm2.5 1c0 .5-.2 1-.4 1-.3 0-.8-.5-1.1-1-.3-.6-.1-1 .4-1 .6 0 1.1.4 1.1 1zm-35.8 6.5c0 1.6.2 2.2.5 1.2.2-.9.2-2.3 0-3-.3-.6-.5.1-.5 1.8zM22.5 47c-4.7 4.1-8.1 5-10.4 2.7-1.1-1-1.3-.9-.9.3.3.8 1.8 1.6 3.5 1.8 2.2.2 4.1-.7 7.9-3.7 4.1-3.5 5.6-4.1 9.4-4.1 3.8 0 5.3.6 9.4 4 7.5 6.2 13.5 4.8 12.3-2.8-.4-2.6-.4-2.6-.6.4-.3 6.6-5 7.1-11.6 1.4-4-3.5-5.2-4-9.5-4s-5.5.5-9.5 4z"/></svg>