<svg width="32" height="32" fill="none" xmlns="http://www.w3.org/2000/svg"><g clip-path="url(#a)"><path fill-rule="evenodd" clip-rule="evenodd" d="m16 27.713-1.732-3L1.732 3 0 0H32l-1.732 3-12.536 21.713-1.732 3zm5.78-16.01L16 21.713l-5.79-10.028.157-.27 3.89-6.709.821-1.417.085-.147.082-.142h1.49l.082.142.085.147.822 1.417 3.888 6.709.167.288zM8.633 8.423 5.657 3.29h5.953L8.634 8.424zm14.712 0 2.977-5.134h-5.954l2.977 5.135z" fill="#141414"/></g><defs><clipPath id="a"><path fill="#fff" d="M0 0h32v32H0z"/></clipPath></defs></svg>