<svg version="1.0" xmlns="http://www.w3.org/2000/svg" width="85.333" height="85.333" viewBox="0 0 64 64"><path d="M19.6 11.5c-1.1 1.1-1.6 3.4-1.6 7.2 0 5.1-.3 5.9-4 9.9-2.2 2.4-4 4.9-4 5.7C10 36 22.2 48 23.9 48c.7 0 4.3-2.9 8-6.5 6.2-6 7.1-6.5 11.2-6.5h4.4l-9.9-9.9c-5.4-5.4-10.3-10.9-11-12.2-1.4-2.9-4.8-3.6-7-1.4zm6.2 2.5c.2 1.8-.7 3.5-3.3 6L19 23.4v-5c0-5.4 1.4-7.6 4.5-7.2 1.3.2 2.1 1.2 2.3 2.8zm10.4 10.7c4.3 4.3 7.8 8.1 7.8 8.5 0 .5-1.2.8-2.7.8-1.9 0-4.5 1.8-9.4 6.5-3.7 3.6-7.3 6.5-8 6.5C22.3 47 11 36 11 34.5c0-.6 3.3-4.4 7.4-8.4l7.5-7.4.4 4.9.3 4.9.2-5.8c.1-3.1.5-5.7.9-5.7s4.3 3.5 8.5 7.7zm10.5 14.9c-.3.3.3 1.5 1.3 2.6 2.5 2.7 3.5 7.5 2 9.3-1.5 1.8-4.1 1.9-6 .2-1.2-1-1.2-.9-.1.5.7 1 2.4 1.8 3.6 1.8 3.3 0 4.8-2.4 4.1-6.2-.7-3.7-3.9-9.1-4.9-8.2z"/><path d="M44 44.1c-.7 1.1-1 2.3-.7 2.5.2.2.9-.7 1.5-2.1 1.4-3 .7-3.3-.8-.4z"/></svg>