<svg version="1.0" xmlns="http://www.w3.org/2000/svg" width="85.333" height="85.333" viewBox="0 0 64 64"><path d="M31 16.7c0 .5.9 1.8 2 2.8 1.1 1 2 1.4 2 .8 0-.5-.9-1.8-2-2.8-1.1-1-2-1.4-2-.8zM44.5 18c-1 1.1-1.6 2.2-1.3 2.5.3.3 1.3-.4 2.3-1.5 1-1.1 1.6-2.2 1.3-2.5-.3-.3-1.3.4-2.3 1.5zm-16.2 6.7c.9.2 2.5.2 3.5 0 .9-.3.1-.5-1.8-.5-1.9 0-2.7.2-1.7.5zm18 0c.9.2 2.5.2 3.5 0 .9-.3.1-.5-1.8-.5-1.9 0-2.7.2-1.7.5zm-3.3 4c0 .5.9 1.8 2 2.8 1.1 1 2 1.4 2 .8 0-.5-.9-1.8-2-2.8-1.1-1-2-1.4-2-.8zM22.5 40c-5.4 5.5-9.7 10.2-9.4 10.4.3.3 5-3.9 10.4-9.4s9.7-10.2 9.4-10.4c-.3-.3-5 3.9-10.4 9.4z"/></svg>