<svg version="1.0" xmlns="http://www.w3.org/2000/svg" width="85.333" height="85.333" viewBox="0 0 64 64"><path d="M43.6 14.9c-2.2 2.2-5.1 4.2-6.5 4.4-2.4.4-2.4.4.4.6 2.4.1 4-.8 6.9-3.8 2.2-2.2 5.1-4.2 6.5-4.4 2.4-.4 2.4-.4-.4-.6-2.4-.1-4 .8-6.9 3.8zm4.5 4.4L43.7 24l1.7 10.5C47 44.3 47 47 45.1 47c-.4 0-2.4-3.5-4.5-7.9l-3.9-7.8-5.8 5.8c-3.3 3.3-5.9 6.3-5.9 6.8s2.6-1.7 5.7-5l5.7-6 4.1 8.1c4 8 4.1 8.1 5.9 6.1 1.7-1.9 1.7-2.4.1-12.1l-1.7-10.2 4.2-4.3c2.3-2.4 4.1-4.7 3.9-5.2-.2-.4-2.4 1.3-4.8 4zm-31.4-1.6c-1.6 1.7-1.3 2 6.2 5.8l8 4-5 5.2c-2.7 2.8-5.7 5.4-6.7 5.6-1.4.4-1.4.5.3.6 1.3.1 4.3-2.1 7.8-5.7l5.7-5.8-8-3.9c-4.4-2.2-7.9-4.4-7.7-5 .2-.5 2.8-.9 5.8-.8 4.3.1 4.8 0 2.4-.7-4.9-1.3-7-1.1-8.8.7zm13.6 1c.9.2 2.3.2 3 0 .6-.3-.1-.5-1.8-.5-1.6 0-2.2.2-1.2.5zM11.4 40.1c-.8 1.4 1.4 2.9 4.1 2.7 1.7-.1 1.7-.1-.2-.5-1.3-.2-2.3-.8-2.3-1.3s1-1.1 2.3-1.3c1.9-.4 1.9-.4-.5-.6-1.5 0-3 .4-3.4 1zm7.2 3.6c.5.5 1.2 1.2 1.6 1.8.4.6.8.2.8-.8 0-.9-.7-1.7-1.7-1.7-.9 0-1.2.3-.7.7zm2.5 4.5c-.2 2.7 1 4.7 2.5 4.1.8-.3 1.3-1.7 1.3-3.2-.2-2.3-.2-2.4-.6-.4-.2 1.3-.8 2.3-1.3 2.3s-1.1-1-1.3-2.3c-.2-1.3-.5-1.5-.6-.5z"/></svg>